<svg xmlns="http://www.w3.org/2000/svg" width="75.9" height="91.44" viewBox="0 0 75.9 91.44"><title>drinkResurs 1</title><g id="Lager_2" data-name="Lager 2"><g id="Lager_1-2" data-name="Lager 1"><path d="M33.23,38.12a1.5,1.5,0,0,0-1.5,1.5V79.27a1.5,1.5,0,0,0,3,0V39.62A1.5,1.5,0,0,0,33.23,38.12Zm12.2,0a1.5,1.5,0,0,0-1.5,1.5V79.27a1.5,1.5,0,0,0,3,0V39.62A1.5,1.5,0,0,0,45.43,38.12ZM66.78,36.6H57.6v-4A7.51,7.51,0,0,0,56,18.43a12.94,12.94,0,0,0,1.14-5.31,13.11,13.11,0,0,0-25.63-3.9,7.48,7.48,0,0,0-5.75-2.69,7.62,7.62,0,0,0-7.72,6.39A7.5,7.5,0,0,0,6.59,18.34,7.62,7.62,0,0,0,7.31,33.5l0,18.32c0,1.26,0,3.69,1.52,5.07V82.32A9.14,9.14,0,0,0,18,91.44h30.5a9.14,9.14,0,0,0,9.13-9.12V76.19h9.17a9.14,9.14,0,0,0,9.13-9.12V45.72A9.14,9.14,0,0,0,66.78,36.6ZM54.6,82.32a6.13,6.13,0,0,1-6.12,6.13H18a6.13,6.13,0,0,1-6.13-6.12V57.89h0c2.73,0,4.55-1,4.55-6.07V38.07H19.7a6,6,0,0,0,.18.6,1.48,1.48,0,0,0-.35.95V79.27a1.5,1.5,0,0,0,3,0V41.85a5.19,5.19,0,0,0,2.38.58,5.39,5.39,0,0,0,4.17-1.91,4.82,4.82,0,0,0,1.07-3.88V32H50.27a7.45,7.45,0,0,0,4.22,1.31h.11Zm-.11-52a4.47,4.47,0,0,1-2.6-.82l-.27-.19a1.49,1.49,0,0,0-.88-.28H28.66a1.5,1.5,0,0,0-1.5,1.5v6.27a1.44,1.44,0,0,0,0,.27,1.85,1.85,0,0,1-.4,1.57,2.44,2.44,0,0,1-1.87.83c-1.65,0-2.38-1.44-2.38-2.86a1.5,1.5,0,0,0-1.5-1.5h-6.1a1.5,1.5,0,0,0-1.5,1.5V51.82c0,3.07-.45,3.07-1.55,3.07-.93,0-1.55,0-1.55-3.07V32a1.5,1.5,0,0,0-1.5-1.5H7.31a4.62,4.62,0,0,1-.12-9.21l.91-.07a1.51,1.51,0,0,0,1.39-1.39l.07-.91a4.5,4.5,0,0,1,7.37-3.14l1.39,1.86a1.5,1.5,0,0,0,2.7-.9v-3a4.55,4.55,0,0,1,4.78-4.19,4.5,4.5,0,0,1,3.8,2.08l1.34,2.09a1.5,1.5,0,0,0,2.72-.47l.57-2.42a10.11,10.11,0,1,1,18.88,6.83L52.43,19a1.5,1.5,0,0,0,1.16,2.16l1.48.18a4.51,4.51,0,0,1-.57,9ZM72.9,67.07a6.13,6.13,0,0,1-6.12,6.13H57.6V39.6h9.17a6.13,6.13,0,0,1,6.13,6.13ZM50,18.27a7.6,7.6,0,1,0-15.2,0,1.5,1.5,0,0,0,3,0,4.6,4.6,0,1,1,8.84,1.79,1.05,1.05,0,0,0,0,.1,1.5,1.5,0,0,0,.4,1.91,4,4,0,0,1,.42.37,3.82,3.82,0,0,1,1.1,2.69,1.5,1.5,0,1,0,3,0,6.79,6.79,0,0,0-1.85-4.67A7.53,7.53,0,0,0,50,18.27Z"/></g></g></svg>