<svg xmlns="http://www.w3.org/2000/svg" width="88" height="63" viewBox="0 0 88 63"><title>comrado_2Resurs 2</title><g id="Lager_2" data-name="Lager 2"><g id="Lager_1-2" data-name="Lager 1"><path d="M81.5,30H78V23h3.5A1.5,1.5,0,0,0,83,21.5C83,7.88,76.62,0,44,0S5,7.88,5,21.5A1.5,1.5,0,0,0,6.5,23H10v7H6.5A6.51,6.51,0,0,0,0,36.5v5a6.51,6.51,0,0,0,5,6.32V51.5A11.51,11.51,0,0,0,16.5,63h55A11.51,11.51,0,0,0,83,51.5V47.82a6.51,6.51,0,0,0,5-6.32v-5A6.51,6.51,0,0,0,81.5,30ZM8,20c.32-9.44,4.35-17,36-17s35.65,7.56,36,17H8Zm67,3v7H13V23Zm5,28.5A8.51,8.51,0,0,1,71.5,60h-55A8.51,8.51,0,0,1,8,51.5V48H80Zm5-10A3.5,3.5,0,0,1,81.5,45H77.43l-2.08-4.17a1.5,1.5,0,1,0-2.68,1.34L74.07,45H67.43l-2.08-4.17a1.5,1.5,0,1,0-2.68,1.34L64.07,45H57.43l-2.08-4.17a1.5,1.5,0,1,0-2.68,1.34L54.07,45H47.43l-2.08-4.17a1.5,1.5,0,1,0-2.68,1.34L44.07,45H37.43l-2.08-4.17a1.5,1.5,0,1,0-2.68,1.34L34.07,45H27.43l-2.08-4.17a1.5,1.5,0,1,0-2.68,1.34L24.07,45H17.43l-2.09-4.17a1.5,1.5,0,1,0-2.68,1.34L14.07,45H6.5A3.5,3.5,0,0,1,3,41.5v-5A3.5,3.5,0,0,1,6.5,33h75A3.5,3.5,0,0,1,85,36.5Z"/></g></g></svg>